<?xml version="1.0" encoding="UTF-8" standalone="no"?><!DOCTYPE svg PUBLIC "-//W3C//DTD SVG 1.1//EN" "http://www.w3.org/Graphics/SVG/1.1/DTD/svg11.dtd"><svg width="100%" height="100%" viewBox="0 0 96 48" version="1.1" xmlns="http://www.w3.org/2000/svg" xmlns:xlink="http://www.w3.org/1999/xlink" xml:space="preserve" xmlns:serif="http://www.serif.com/" style="fill-rule:evenodd;clip-rule:evenodd;stroke-linejoin:round;stroke-miterlimit:2;"><rect id="Artboard1" x="0" y="0" width="96" height="47.6" style="fill:none;"/><clipPath id="_clip1"><rect x="0" y="0" width="96" height="47.6"/></clipPath><g clip-path="url(#_clip1)"><path d="M1.795,10.66c3.703,-1.117 6.606,-3.449 9.737,-5.636c5.978,-4.178 9.463,-0.464 14.105,3.183c6.59,5.179 12.573,1.531 18.989,-1.806c6.011,-3.129 10.865,1.259 15.991,3.701c3.24,1.544 6.49,1.313 9.849,0.369c5.868,-1.651 10.636,-7.087 16.518,-2.065c2.38,2.032 4.394,3.383 7.609,3.29c1.873,-0.055 1.879,-2.967 0,-2.912c-4.142,0.121 -6.651,-4.021 -10.34,-5.399c-3.342,-1.249 -7.418,0.901 -10.31,2.324c-6.522,3.205 -10.553,2.816 -16.694,-0.769c-2.754,-1.608 -6.152,-3.027 -9.411,-2.493c-4.655,0.764 -8.158,3.865 -12.558,5.342c-5.167,1.735 -9.075,-3.052 -12.703,-5.802c-8.062,-6.111 -14.287,3.67 -21.557,5.865c-1.791,0.54 -1.027,3.352 0.775,2.808Zm-0.387,18.739c2.588,-0.305 4.395,-0.939 6.403,-2.635c6.294,-5.318 10.983,-5.461 17.675,-0.71c7.529,5.341 14.597,3.182 21.566,-1.558c5.145,-3.5 8.483,1.441 13.083,2.847c3.736,1.14 7.031,0.402 10.598,-1.039c5.662,-2.287 8.664,-3.171 14.002,0.107c2.937,1.803 5.599,3.184 9.122,2.987c1.867,-0.105 1.876,-3.017 -0,-2.912c-7.13,0.399 -11.195,-6.921 -18.827,-5.112c-5.998,1.423 -9.858,5.673 -16.253,2.021c-2.733,-1.559 -6.149,-4.046 -9.547,-3.049c-3.125,0.915 -5.532,3.061 -8.305,4.685c-6.998,4.099 -12.732,-1.32 -18.598,-4.387c-2.791,-1.459 -5.799,-1.53 -8.805,-0.936c-4.877,0.965 -7.199,6.196 -12.114,6.775c-1.841,0.221 -1.864,3.135 0,2.916Zm0.737,16.719c2.534,-0.111 4.21,-0.77 6.24,-2.339c7.554,-5.837 11.886,-0.818 19.059,1.552c8.669,2.866 14.469,-3.44 22.769,-3.672c4.123,-0.116 8.117,4.064 12.338,4.751c2.926,0.478 6.143,-0.465 8.777,-1.662c2.627,-1.193 5.15,-2.711 7.846,-3.738c2.342,-0.892 5.456,3.197 7.036,4.42c2.377,1.841 5.499,2.082 8.383,2.162c1.879,0.053 1.873,-2.859 0,-2.912c-5.224,-0.146 -7.121,-2.743 -10.889,-5.506c-2.327,-1.706 -4.336,-1.342 -6.956,-0.343c-4.216,1.605 -7.597,4.295 -12.259,4.76c-5.028,0.503 -8.225,-4.086 -12.904,-4.673c-3.128,-0.393 -5.734,0.429 -8.643,1.562c-6.598,2.57 -11.216,4.012 -17.934,0.465c-3.784,-1.998 -7.072,-3.427 -11.418,-2.896c-4.402,0.538 -7.068,4.966 -11.446,5.155c-1.869,0.082 -1.876,2.995 0.001,2.914Z" style="fill:#4bba5b;fill-rule:nonzero;"/></g></svg>