<?xml version="1.0" encoding="UTF-8" standalone="no"?><!DOCTYPE svg PUBLIC "-//W3C//DTD SVG 1.1//EN" "http://www.w3.org/Graphics/SVG/1.1/DTD/svg11.dtd"><svg width="100%" height="100%" viewBox="0 0 220 48" version="1.1" xmlns="http://www.w3.org/2000/svg" xmlns:xlink="http://www.w3.org/1999/xlink" xml:space="preserve" xmlns:serif="http://www.serif.com/" style="fill-rule:evenodd;clip-rule:evenodd;stroke-linejoin:round;stroke-miterlimit:2;"><g id="_33711592-970d-4b32-b1e9-9f2a15e6c1db" serif:id="33711592-970d-4b32-b1e9-9f2a15e6c1db"><path d="M134.94,39.248c-1.008,-0 -2.073,-0.378 -3.196,-1.134c-1.146,-0.733 -2.177,-1.707 -3.093,-2.922l-7.183,-9.622l-1.306,-0.653l-1.959,-0l0,8.488l0.309,4.09l3.334,0.756l0,0.997l-12.75,-0l-0,-0.997l3.436,-0.756l0.344,-4.09l0,-18.971l-0.344,-4.158l-3.436,-0.756l-0,-1.1l14.022,0c1.833,0 3.54,0.321 5.12,0.962c1.558,0.642 2.807,1.581 3.747,2.819c0.939,1.237 1.409,2.703 1.409,4.399c-0,1.076 -0.356,2.142 -1.066,3.196c-0.687,1.031 -1.558,1.913 -2.612,2.646c-1.054,0.733 -2.062,1.237 -3.024,1.512l-0.344,0.103l9.692,12.545l5.43,1.649l-0.034,0.997l-6.496,-0Zm-16.737,-15.534l2.681,-0c1.237,-0 2.383,-0.264 3.437,-0.791c1.076,-0.527 1.936,-1.271 2.577,-2.234c0.642,-0.985 0.962,-2.085 0.962,-3.299c0,-2.222 -0.538,-4.044 -1.615,-5.464c-1.054,-1.444 -2.761,-2.166 -5.121,-2.166l-2.715,0.585l-0.206,3.368l0,10.001Zm28.972,-10.517c-0.825,0 -1.512,-0.252 -2.062,-0.756c-0.573,-0.504 -0.859,-1.111 -0.859,-1.821c-0,-0.734 0.286,-1.364 0.859,-1.891c0.596,-0.527 1.283,-0.79 2.062,-0.79c0.802,-0 1.501,0.263 2.096,0.79c0.573,0.527 0.86,1.157 0.86,1.891c-0,0.71 -0.287,1.317 -0.86,1.821c-0.595,0.504 -1.294,0.756 -2.096,0.756Zm-5.602,26.051l0,-0.962l3.231,-0.791l0.378,-4.124l-0,-7.63l-0.378,-3.333l-3.265,-0.894l-0,-0.928l8.351,-2.165l0.55,0.619l-0.378,2.818l-0,11.513l0.309,4.124l3.093,0.791l0,0.962l-11.891,-0Zm24.676,0.447l-0.241,-0.172l-8.66,-17.803l-2.99,-1.374l-0,-1.169l11.238,0l-0.103,1.169l-2.715,1.031l0.034,0.653l5.602,11.547l4.399,-10.001l0.481,-1.821l-3.299,-1.409l0,-1.169l9.245,0l-0.069,1.169l-3.677,1.546l-7.664,16.222l-1.581,1.581Zm23.989,-0.103c-1.81,-0 -3.494,-0.401 -5.052,-1.203c-1.535,-0.825 -2.761,-1.982 -3.678,-3.471c-0.916,-1.467 -1.374,-3.151 -1.374,-5.053c-0,-2.359 0.504,-4.387 1.512,-6.083c1.008,-1.695 2.302,-2.967 3.883,-3.814c1.581,-0.848 3.196,-1.272 4.846,-1.272c2.887,-0 4.938,0.699 6.152,2.096c1.214,1.398 1.821,3.22 1.821,5.465l-0.584,1.1l-12.956,-0l-0,0.206c-0,2.085 0.378,3.803 1.134,5.155c0.779,1.329 1.752,2.314 2.921,2.956c1.168,0.618 2.348,0.928 3.54,0.928l5.361,-2.544l0.481,1.478l-4.502,3.368c-1.191,0.458 -2.36,0.688 -3.505,0.688Zm-5.259,-13.507l7.939,0l0.585,-1.272c-0,-0.641 -0.138,-1.328 -0.413,-2.062c-0.275,-0.756 -0.687,-1.397 -1.237,-1.924c-0.573,-0.55 -1.283,-0.825 -2.131,-0.825c-1.123,-0 -2.039,0.401 -2.749,1.203c-0.688,0.779 -1.203,1.638 -1.547,2.577c-0.321,0.963 -0.47,1.65 -0.447,2.062l0,0.241Zm16.909,13.163l0,-0.962l3.265,-0.791l0.378,-4.124l0,-7.389l-0.378,-3.334l-3.299,-0.893l-0,-0.928l8.214,-2.165l0.481,0.584l-0.378,4.09l0.378,0.206c0.664,-1.26 1.535,-2.383 2.612,-3.368c1.077,-0.985 2.245,-1.478 3.505,-1.478c0.619,-0 1.203,0.092 1.753,0.275c0.55,0.183 0.951,0.424 1.203,0.722l0.378,1.649l-2.165,2.818l-1.925,-1.168c-0.321,-0.229 -0.618,-0.39 -0.893,-0.481c-0.275,-0.092 -0.653,-0.138 -1.134,-0.138c-0.688,0 -1.318,0.252 -1.891,0.756c-0.55,0.527 -0.996,1.146 -1.34,1.856c-0.321,0.688 -0.481,1.238 -0.481,1.65l-0,6.736l0.344,4.124l3.78,0.791l-0,0.962l-12.407,-0Z" style="fill:#fff;fill-rule:nonzero;"/></g><path d="M1.797,10.664c3.706,-1.118 6.612,-3.452 9.746,-5.642c5.984,-4.183 9.473,-0.464 14.119,3.186c6.597,5.184 12.586,1.533 19.008,-1.808c6.018,-3.132 10.876,1.26 16.008,3.706c3.242,1.544 6.496,1.314 9.858,0.368c5.874,-1.652 10.647,-7.094 16.535,-2.066c2.382,2.033 4.398,3.386 7.616,3.293c1.875,-0.055 1.881,-2.97 0,-2.915c-4.146,0.121 -6.657,-4.025 -10.35,-5.405c-3.345,-1.25 -7.425,0.903 -10.32,2.326c-6.529,3.209 -10.564,2.82 -16.711,-0.769c-2.757,-1.609 -6.158,-3.031 -9.42,-2.495c-4.659,0.765 -8.167,3.868 -12.571,5.347c-5.172,1.736 -9.084,-3.055 -12.716,-5.808c-8.07,-6.117 -14.301,3.674 -21.578,5.871c-1.793,0.541 -1.028,3.356 0.776,2.811Zm-0.387,18.757c2.59,-0.305 4.399,-0.94 6.409,-2.637c6.3,-5.324 10.994,-5.466 17.693,-0.711c7.535,5.347 14.611,3.185 21.587,-1.559c5.15,-3.504 8.492,1.442 13.096,2.849c3.739,1.142 7.038,0.403 10.608,-1.04c5.668,-2.289 8.673,-3.174 14.017,0.108c2.939,1.804 5.604,3.186 9.13,2.989c1.87,-0.105 1.879,-3.02 0,-2.915c-7.137,0.4 -11.206,-6.927 -18.845,-5.116c-6.004,1.423 -9.868,5.678 -16.269,2.023c-2.736,-1.561 -6.156,-4.051 -9.557,-3.053c-3.128,0.917 -5.537,3.064 -8.313,4.69c-7.006,4.103 -12.745,-1.321 -18.616,-4.391c-2.794,-1.461 -5.806,-1.532 -8.814,-0.938c-4.882,0.967 -7.207,6.203 -12.126,6.783c-1.844,0.22 -1.866,3.137 -0,2.918Zm0.738,16.736c2.536,-0.111 4.214,-0.771 6.246,-2.342c7.561,-5.842 11.898,-0.818 19.078,1.555c8.677,2.868 14.482,-3.445 22.791,-3.677c4.127,-0.115 8.125,4.068 12.35,4.756c2.929,0.478 6.15,-0.465 8.786,-1.664c2.629,-1.193 5.155,-2.713 7.854,-3.741c2.344,-0.893 5.462,3.2 7.043,4.425c2.38,1.842 5.504,2.083 8.391,2.164c1.881,0.052 1.875,-2.863 0,-2.915c-5.229,-0.147 -7.127,-2.746 -10.899,-5.512c-2.33,-1.708 -4.341,-1.343 -6.964,-0.344c-4.219,1.607 -7.604,4.3 -12.27,4.766c-5.034,0.503 -8.233,-4.091 -12.917,-4.678c-3.132,-0.393 -5.74,0.429 -8.652,1.563c-6.605,2.572 -11.227,4.016 -17.953,0.466c-3.787,-2 -7.078,-3.431 -11.429,-2.899c-4.406,0.539 -7.075,4.97 -11.457,5.161c-1.871,0.081 -1.878,2.997 0.002,2.916Z" style="fill:#4bba5b;fill-rule:nonzero;"/></svg>