<?xml version="1.0" encoding="UTF-8" standalone="no"?><!DOCTYPE svg PUBLIC "-//W3C//DTD SVG 1.1//EN" "http://www.w3.org/Graphics/SVG/1.1/DTD/svg11.dtd"><svg width="100%" height="100%" viewBox="0 0 720 720" version="1.1" xmlns="http://www.w3.org/2000/svg" xmlns:xlink="http://www.w3.org/1999/xlink" xml:space="preserve" xmlns:serif="http://www.serif.com/" style="fill-rule:evenodd;clip-rule:evenodd;stroke-linejoin:round;stroke-miterlimit:2;"><path d="M720,227.339l0,265.322c0,125.472 -101.867,227.339 -227.339,227.339l-265.322,0c-125.472,0 -227.339,-101.867 -227.339,-227.339l-0,-265.322c-0,-125.472 101.867,-227.339 227.339,-227.339l265.322,0c125.472,0 227.339,101.867 227.339,227.339Z" style="fill:#111;"/><g><path d="M116.421,251.022c19.521,-7.004 34.823,-21.626 51.329,-35.342c31.514,-26.198 49.886,-2.907 74.357,19.961c34.743,32.472 66.281,9.597 100.104,-11.328c31.691,-19.618 57.279,7.895 84.304,23.211c17.077,9.677 34.209,8.231 51.919,2.308c30.936,-10.35 56.07,-44.436 87.08,-12.942c12.545,12.737 23.162,21.209 40.11,20.625c9.874,-0.343 9.905,-18.602 0,-18.259c-21.836,0.76 -35.063,-25.212 -54.51,-33.852c-17.617,-7.83 -39.103,5.653 -54.35,14.57c-34.382,20.1 -55.634,17.661 -88.008,-4.82c-14.516,-10.079 -32.428,-18.982 -49.609,-15.63c-24.538,4.791 -43.009,24.234 -66.202,33.495c-27.24,10.875 -47.842,-19.136 -66.97,-36.38c-42.499,-38.315 -75.314,23.014 -113.638,36.774c-9.444,3.389 -5.416,21.02 4.084,17.609Zm-2.039,139.404c13.644,-1.914 23.169,-5.887 33.755,-16.521c33.178,-33.349 57.9,-34.24 93.177,-4.455c39.687,33.494 76.948,19.953 113.688,-9.765c27.123,-21.948 44.722,9.034 68.971,17.85c19.693,7.15 37.065,2.519 55.867,-6.515c29.85,-14.337 45.674,-19.881 73.816,0.672c15.481,11.306 29.518,19.961 48.087,18.726c9.844,-0.657 9.893,-18.916 0,-18.259c-37.586,2.505 -59.017,-43.391 -99.25,-32.048c-31.618,8.918 -51.968,35.569 -85.68,12.672c-14.406,-9.78 -32.416,-25.373 -50.328,-19.121c-16.476,5.74 -29.162,19.194 -43.783,29.375c-36.893,25.702 -67.117,-8.275 -98.041,-27.505c-14.713,-9.152 -30.574,-9.597 -46.417,-5.873c-25.71,6.055 -37.955,38.856 -63.862,42.486c-9.708,1.38 -9.825,19.654 0,18.281Zm3.887,126.739c13.356,-0.694 22.192,-4.828 32.895,-14.666c39.822,-36.599 62.659,-5.127 100.473,9.736c45.698,17.967 76.272,-21.575 120.03,-23.029c21.732,-0.723 42.788,25.483 65.042,29.792c15.425,2.994 32.385,-2.914 46.269,-10.422c13.847,-7.479 27.148,-16.996 41.363,-23.438c12.343,-5.594 28.763,20.049 37.089,27.717c12.533,11.54 28.99,13.052 44.194,13.556c9.905,0.329 9.874,-17.93 0,-18.259c-27.54,-0.92 -37.537,-17.2 -57.402,-34.524c-12.269,-10.7 -22.862,-8.414 -36.672,-2.155c-22.223,10.064 -40.049,26.936 -64.623,29.85c-26.509,3.155 -43.359,-25.621 -68.026,-29.302c-16.494,-2.461 -30.23,2.688 -45.563,9.794c-34.787,16.112 -59.128,25.154 -94.547,2.914c-19.945,-12.526 -37.28,-21.487 -60.191,-18.157c-23.205,3.375 -37.261,31.136 -60.337,32.326c-9.856,0.511 -9.893,18.778 0.006,18.267Z" style="fill:#4bba5b;fill-rule:nonzero;stroke:#4bba5b;stroke-width:29px;"/></g></svg>